<svg xmlns="http://www.w3.org/2000/svg" width="2730.667" height="2730.667" version="1.0" viewBox="0 0 2048 2048"><path d="M986 682.1c-20 2.3-45.7 9.5-63 17.7-28 13.4-55.4 35.2-74.8 59.5-30 37.8-46.6 92.8-42.3 140.2 4.2 45.7 20 82.9 50.1 118.1 27.7 32.3 72.4 58 114 65.4 13 2.3 39.6 4.7 40.7 3.7.7-.7 1.2-384.5.5-398.5l-.4-7.2-8.6.1c-4.8.1-12.1.5-16.2 1zM953.9 883c0 105-.2 133-1.2 133-2.5 0-16.5-7.4-26.1-13.8-20.3-13.4-38.3-34.6-49.5-58.2-15-31.6-17.6-70.3-7-103.7 9.7-30.4 30.3-57.8 57.4-76.4 4.9-3.3 24.3-13.8 25.7-13.9.4 0 .7 59.8.7 133z"/><path d="M1042 971.1v173.2l-20.7-.6c-50.3-1.3-93-15-135-43.3-32.5-21.9-59.6-50.2-78.9-82.6-33.7-56.6-44.6-118.2-32.5-183.1l2.7-14.7H720v427h614V820h-57.7l1.8 8.2c8.5 38.5 7.6 82.3-2.6 122.4-8.7 33.9-26.1 68.4-49.2 96.9-15.5 19.2-41 42.2-61.3 55.5-17.3 11.2-56.2 29-63.5 29-1.2 0-1.5-15.2-1.5-106 0-58.3.2-106 .5-106 .5 0 3.2 4 18.6 28 9.3 14.5 39.3 62 51.9 82.2 5.8 9.3 10.8 16.7 11.2 16.5 1.9-.6 33.2-41.9 43.6-57.4l6.2-9.2V798h-58l-.2 63.4-.3 63.4-11.1-17.6c-19.3-30.8-56.8-90.3-63-99.9l-5.9-9.2-25.7-.1H1042v173.1zM565.2 1412.5c-3.6 3-4.7 6.6-3.2 11.1 2.6 7.8 10.8 9.8 16.6 4 3.8-3.8 4.4-7.7 1.9-12.6-2.9-5.6-10.2-6.8-15.3-2.5zM1147.7 1412.7c-.4.3-.7 26.2-.7 57.5v56.9l5.3-.3 5.2-.3v-6.3c-.1-3.4-.2-29.2-.3-57.2l-.2-51h-4.3c-2.4 0-4.7.3-5 .7zM428.8 1431.7c-.1 10.4-.1 20.1 0 21.6l.1 2.8-4.9-4.4c-6.1-5.5-12.7-7.7-23-7.7-23.3 0-38.3 14.3-39.7 38-.9 14.5 2.7 25.2 11.5 34.3 5.7 5.9 11.7 9.1 20 10.7 12.3 2.5 23.3-.3 31.6-8l4.6-4.3v12.3h17v-114h-17l-.2 18.7zm-11.1 30.9c11.7 7.1 14.9 28.3 6.2 40.4-4 5.4-9.8 8.2-18.5 8.8-6.1.4-8 .1-12.6-2.1-9.2-4.2-14-12.5-14.1-24.2 0-11.4 4.5-19.4 13.5-24 4.7-2.3 6.2-2.6 13-2.2 6.3.3 8.6.9 12.5 3.3zM605.2 1469.7l.3 56.8h17l.3-56.8.2-56.7h-18l.2 56.7zM1189 1415c-2.8 2.8-2.6 8.1.3 10.8 3 2.8 6.8 2.8 9.5-.1 4.5-4.8 1.6-12.7-4.8-12.7-1.7 0-3.9.9-5 2zM1678.2 1441c-2.3 1-5.5 3.3-7.1 5l-2.9 3.2-3.3-1.9c-2.7-1.4-5.6-1.8-14.9-1.8-10 0-12.2.3-16.8 2.4-13.8 6.2-19.7 23.4-12.9 37.4 1.6 3.1 4.2 6.8 5.9 8.3 3 2.5 3.1 2.7 1.2 3.7-3.6 2-7.3 6.8-8 10.3-.9 4.8.2 8.3 3.8 11.6 1.6 1.5 2.5 2.8 1.9 2.8-1.7 0-8.1 6-9.7 9.1-2.1 4.1-1.7 10.8.9 15.4 4.7 8.4 22.3 13.6 41.2 12.2 10.3-.8 17.3-2.9 22.7-7 11.4-8.6 11.8-24.6.9-30.6-4.2-2.3-5.9-2.5-24-3.2-10.8-.4-20.8-1.2-22.2-1.7-6.5-2.5-7.8-8.1-3.1-13.3 2.7-3 2.8-3 7.5-1.9 7 1.8 20.1.8 26.5-2 10-4.3 16.2-14.4 16.2-26 0-7-1.4-11.4-5.1-16.2l-2.9-3.7 2.2-1.5c1.3-.9 4.3-2.2 6.8-3.1 5-1.8 6-2.8 6-6.8 0-2.4-.4-2.7-3.2-2.7-1.8 0-5.2.9-7.6 2zm-20.6 12.5c5.4 1.6 11.5 7 13.3 11.8 3 7.9.3 18.8-5.9 24-8.2 7-23.6 6.1-31.5-1.7-11.1-11.2-7.3-28.5 7.5-33.6 6.7-2.3 10.1-2.4 16.6-.5zm14.6 74.6c9.2 2.4 9 13.6-.3 18.8-5.2 2.9-17.2 4.3-27.4 3.2-14.5-1.7-20.5-5.6-20.5-13.3 0-3.2.7-4.7 3.5-7.5l3.5-3.5 18.8.7c10.3.4 20.4 1.1 22.4 1.6zM489.5 1445.5c-6.6 1.5-12.3 3.7-17.2 6.6l-3.2 2 3.6 5.9c1.9 3.3 3.7 6 3.8 6 .2 0 3.4-1.4 7.1-3.2 5.7-2.6 8.4-3.3 15.6-3.6 7.3-.4 9.4-.1 13 1.7 5 2.4 7.4 5.9 8.4 12 .5 3.2.3 4.5-.7 5.2-.8.5-8.2.9-16.5.9-25 0-34.2 4.7-37.3 19.1-1.5 6.6-.5 11.8 3.3 18.1 2.5 4.2 4.3 5.9 9 8.3 5.5 2.8 6.7 3 16.5 3 12 0 17.2-1.7 22.8-7.4l3.2-3.1.3 4.7.3 4.8 8.3.3 8.2.3v-29.5c0-27.4-.1-29.9-2.1-35.1-1.1-3-3.2-6.9-4.6-8.6-7.1-8.4-25.4-12.1-41.8-8.4zm30.8 51.4c-.2 4.3-1 7.4-2.3 9.7-4.2 6.7-17.8 10.3-26.5 7-6.1-2.4-8.5-5.7-8.5-11.5 0-3.9.5-5.2 2.9-7.5 3.6-3.4 9.1-4.4 23.6-4.2l11 .1-.2 6.4zM767.4 1445.8c-5.4 1.9-9.8 4.9-12.3 8.5-1.5 2.1-1.6 2-2.1-3.3l-.5-5.5-8.2-.3-8.3-.3v82.1h16.9l.3-25.8c.3-25.4.3-25.8 2.9-30.7 3.7-7.3 9-10.6 17.7-11.3 4-.2 8.4 0 10.5.7 4.5 1.5 9.3 6.8 10.6 11.8.6 2.2 1.1 14.7 1.1 29.5v25.8h18v-24.8c0-13.6-.5-27.6-1.1-31.2-2-12.3-6.3-19.1-15.4-23.8-6.7-3.5-22.2-4.2-30.1-1.4zM861 1445.5c-7.2 2-15.4 7-19.6 12-13.9 16.1-13.3 43.1 1.3 58 14.8 15 43.6 16.6 60.3 3.4 2.8-2.2 5-4.3 5-4.7-.1-.4-2.1-2.9-4.5-5.6l-4.5-5-2.2 2.1c-7.1 6.5-20.4 9-31 5.9-7.9-2.3-14.3-9-16.9-17.8l-.8-2.8h66.2l-.5-9.1c-.5-7.8-1.1-10-4.2-16.3-4.3-8.7-9.3-13.6-18.3-17.9-5.4-2.5-8-3-15.7-3.3-6.1-.3-10.9.1-14.6 1.1zm21.1 13.6c7.3 2.2 14.9 11.2 14.9 17.7v2.2h-49.1l.7-2.3c2.4-7.8 8.7-14.9 15.5-17.3 4.4-1.6 13.1-1.7 18-.3zM1261.3 1445c-8.8 1.8-15.3 5.9-19.5 12-1.7 2.5-1.7 2.4-1.7-4.8l-.1-7.2h-10v82h9.9l.3-26.8c.3-25.3.4-26.9 2.5-30.8 5.7-10.7 13.3-15.4 24.8-15.4 9.7 0 16.4 3.3 20.3 9.8l2.7 4.7.3 29.2.3 29.3h10l-.3-31.3-.3-31.2-2.7-5.1c-3.3-6.2-8.6-10.9-14.8-12.9-5.9-1.9-16.4-2.6-21.7-1.5zM1595.4 1445c-9.7 1.9-16 6-20.9 13.3l-3.5 5.2V1445h-9v82h9.9l.3-26.3c.3-25.1.4-26.4 2.6-30.5 4.9-9.3 15.7-16.2 25.2-16.2h4v-5c0-5.6-.1-5.6-8.6-4zM563 1486v41h8.4c7.2 0 8.4-.3 8.7-1.8.2-.9.3-19.4.1-41l-.3-39.2H563v41zM637 1445.6c0 .3 4.8 11.8 10.6 25.7 19.9 47.3 23.4 55.8 23.4 57.5 0 .9-1.3 3.9-2.8 6.7-4.7 8.6-12.2 10.5-21.4 5.3-2.1-1.2-3.9-2-4.1-1.7-1.3 2-5.7 12.2-5.7 13.2 0 2.6 9.1 6 17.5 6.5 6.8.4 8.9.1 13.3-1.8 5.7-2.5 11-7.7 14.3-14.2 1.2-2.4 6.3-14.7 11.4-27.3 9.5-23.7 27-65.7 28.6-68.8.9-1.6.3-1.7-7.6-1.7h-8.6l-1.6 3.7c-.9 2.1-6.7 16.4-12.9 31.8-9.9 24.5-11.4 27.7-12.2 25.5-2.2-5.7-17.7-43.2-21.4-51.8l-4-9.2h-8.4c-4.6 0-8.4.2-8.4.6zM923.6 1445.8c-.3.5 5.1 17.5 12 37.8 6.9 20.3 13 38.4 13.7 40.2 1 3.2 1.1 3.3 6.5 3l5.5-.3 9.4-26.5c5.1-14.6 10.5-29.8 11.9-33.8 1.5-4 3-7 3.4-6.5.5.4 3.3 8.2 6.3 17.3 3.1 9.1 8.1 24.1 11.2 33.3l5.7 16.8 5.6-.3 5.5-.3 1.8-5c12.4-35.5 25.9-74.8 25.9-75.6 0-.6-2-.9-4.7-.7l-4.7.3-11.5 34.7c-6.4 19.2-11.8 34.8-12.1 34.8-.3 0-5.8-15.6-12.3-34.8l-11.7-34.7-4.9-.3-4.8-.3-4.1 11.8c-11.9 34.7-20.6 58.3-21.3 57.6-.4-.4-5.6-16.1-11.7-34.8l-10.9-34-4.6-.3c-2.5-.2-4.8.1-5.1.6zM1078.5 1446.8c-10.8 3.7-16 10.8-15.9 21.3.1 10.8 5.7 16.1 21.4 20.4 20.4 5.6 23.1 6.6 26.3 9.5 2.7 2.4 3.2 3.5 3.2 7.4 0 3.6-.6 5.1-3 7.6-8 8.4-29.5 7.6-43.1-1.7l-3.8-2.5-2.3 2.8c-3.1 4-2.9 4.9 1.8 8.3 7.4 5.4 15.8 7.6 29.4 7.6 10.4 0 12.7-.3 17-2.3 12.8-5.9 18.4-18.5 13-29.2-3.1-6.1-10.1-9.9-24.7-13.6-16-3.9-19.5-5.3-22.3-8.5-4.3-5.2-2.8-13.5 3-17.3 6.6-4.4 22.8-3.7 33 1.3 3.2 1.6 6.3 2.7 6.7 2.5 1.5-1 3.9-6.5 3.2-7.5-1-1.7-10.2-5.5-16.2-6.8-7.9-1.7-20.8-1.3-26.7.7zM1189 1485.9v41.1h10l-.2-40.8-.3-40.7-4.7-.3-4.8-.3v41zM1350.3 1446.8c-13.8 4.9-23 16.7-25.5 32.7-4.9 31.8 24.1 55.8 55.4 45.9 5.3-1.7 16.8-9.7 16.8-11.6 0-.7-1.1-2.6-2.3-4.2l-2.4-2.9-5.4 4c-3 2.3-7.6 4.8-10.2 5.7-6.1 2-16 2-22 0-9.1-3.1-17.3-13-19.3-23.4l-.6-3 34.3-.2 34.4-.3-.3-5.5c-1-17.3-8.1-29.4-21.1-35.7-4.8-2.4-7-2.8-16.1-3.1-8.2-.2-11.6.2-15.7 1.6zm19.3 7.3c7.6 1.4 13.4 4.8 17.3 10.1 2.9 3.9 6.1 12.1 6.1 15.5 0 1-5.7 1.3-29 1.3s-29-.3-29-1.3c0-4.4 3.5-12.3 7.3-16.4 5.6-6.1 9.5-8 20.8-10.2.3-.1 3.2.4 6.5 1zM1482.1 1447c-7.6 2.8-12.4 6.2-17 12-16.3 20.6-9.4 53.4 13.7 64.7 5.3 2.6 6.6 2.8 17.7 2.8 11.6 0 12.3-.1 18.6-3.2 29.9-14.8 30.1-60.5.3-74.8-5.2-2.6-7.2-2.9-16.9-3.2-9.1-.3-12 0-16.4 1.7zm27.5 9.5c6.3 2.8 11.4 7.8 14.5 14.1 2.1 4.2 2.4 6.3 2.4 15.4 0 12-1.6 16.6-8.2 23.4-6.4 6.5-10.5 8.1-21.3 8.1-8.6 0-10-.3-14.8-2.9-11.2-6.3-17.4-20.6-15-35.1 2.1-13.2 11.5-23.4 23.7-25.5 6.3-1.1 12.6-.2 18.7 2.5zM1424.8 1512c-2.7 1.6-4.2 7.6-2.8 11.1 2.3 5.6 9.4 6.8 12.9 2.3 4.4-5.6 1.1-14.4-5.2-14.4-1.8 0-4 .5-4.9 1z"/></svg>
