<?xml version="1.0" standalone="no"?>
<!DOCTYPE svg PUBLIC "-//W3C//DTD SVG 20010904//EN"
 "http://www.w3.org/TR/2001/REC-SVG-20010904/DTD/svg10.dtd">
<svg version="1.0" xmlns="http://www.w3.org/2000/svg"
 width="2048.000000pt" height="2048.000000pt" viewBox="0 0 2048.000000 2048.000000"
 preserveAspectRatio="xMidYMid meet">

<g transform="translate(0.000000,2048.000000) scale(0.100000,-0.100000)"
fill="#000000" stroke="none">
<path d="M9860 13659 c-200 -23 -457 -95 -630 -177 -280 -134 -554 -352 -748
-595 -300 -378 -466 -928 -423 -1402 42 -457 200 -829 501 -1181 277 -323 724
-580 1140 -654 130 -23 396 -47 407 -37 7 7 12 3845 5 3985 l-4 72 -86 -1
c-48 -1 -121 -5 -162 -10z m-321 -2009 c0 -1050 -2 -1330 -12 -1330 -25 0
-165 74 -261 138 -203 134 -383 346 -495 582 -150 316 -176 703 -70 1037 97
304 303 578 574 764 49 33 243 138 257 139 4 0 7 -598 7 -1330z"/>
<path d="M10420 10769 l0 -1732 -207 6 c-503 13 -930 150 -1350 433 -325 219
-596 502 -789 826 -337 566 -446 1182 -325 1831 l27 147 -288 0 -288 0 0
-2135 0 -2135 3070 0 3070 0 0 2135 0 2135 -288 0 -289 0 18 -82 c85 -385 76
-823 -26 -1224 -87 -339 -261 -684 -492 -969 -155 -192 -410 -422 -613 -555
-173 -112 -562 -290 -635 -290 -12 0 -15 152 -15 1060 0 583 2 1060 5 1060 5
0 32 -40 186 -280 93 -145 393 -620 519 -822 58 -93 108 -167 112 -165 19 6
332 419 436 574 l62 92 0 911 0 910 -290 0 -290 0 -2 -634 -3 -634 -111 176
c-193 308 -568 903 -630 999 l-59 92 -257 1 -258 0 0 -1731z"/>
<path d="M5652 6355 c-36 -30 -47 -66 -32 -111 26 -78 108 -98 166 -40 38 38
44 77 19 126 -29 56 -102 68 -153 25z"/>
<path d="M11477 6353 c-4 -3 -7 -262 -7 -575 l0 -569 53 3 52 3 0 63 c-1 34
-2 292 -3 572 l-2 510 -43 0 c-24 0 -47 -3 -50 -7z"/>
<path d="M4288 6163 c-1 -104 -1 -201 0 -216 l1 -28 -49 44 c-61 55 -127 77
-230 77 -233 0 -383 -143 -397 -380 -9 -145 27 -252 115 -343 57 -59 117 -91
200 -107 123 -25 233 3 316 80 l46 43 0 -62 0 -61 85 0 85 0 0 570 0 570 -85
0 -85 0 -2 -187z m-111 -309 c117 -71 149 -283 62 -404 -40 -54 -98 -82 -185
-88 -61 -4 -80 -1 -126 21 -92 42 -140 125 -141 242 0 114 45 194 135 240 47
23 62 26 130 22 63 -3 86 -9 125 -33z"/>
<path d="M6052 5783 l3 -568 85 0 85 0 3 568 2 567 -90 0 -90 0 2 -567z"/>
<path d="M11890 6330 c-28 -28 -26 -81 3 -108 30 -28 68 -28 95 1 45 48 16
127 -48 127 -17 0 -39 -9 -50 -20z"/>
<path d="M16782 6070 c-23 -10 -55 -33 -71 -50 l-29 -32 -33 19 c-27 14 -56
18 -149 18 -100 0 -122 -3 -168 -24 -138 -62 -197 -234 -129 -374 16 -31 42
-68 59 -83 30 -25 31 -27 12 -37 -36 -20 -73 -68 -80 -103 -9 -48 2 -83 38
-116 16 -15 25 -28 19 -28 -17 0 -81 -60 -97 -91 -21 -41 -17 -108 9 -154 47
-84 223 -136 412 -122 103 8 173 29 227 70 114 86 118 246 9 306 -42 23 -59
25 -240 32 -108 4 -208 12 -222 17 -65 25 -78 81 -31 133 27 30 28 30 75 19
70 -18 201 -8 265 20 100 43 162 144 162 260 0 70 -14 114 -51 162 l-29 37 22
15 c13 9 43 22 68 31 50 18 60 28 60 68 0 24 -4 27 -32 27 -18 0 -52 -9 -76
-20z m-206 -125 c54 -16 115 -70 133 -118 30 -79 3 -188 -59 -240 -82 -70
-236 -61 -315 17 -111 112 -73 285 75 336 67 23 101 24 166 5z m146 -746 c92
-24 90 -136 -3 -188 -52 -29 -172 -43 -274 -32 -145 17 -205 56 -205 133 0 32
7 47 35 75 l35 35 188 -7 c103 -4 204 -11 224 -16z"/>
<path d="M4895 6025 c-66 -15 -123 -37 -172 -66 l-32 -20 36 -59 c19 -33 37
-60 38 -60 2 0 34 14 71 32 57 26 84 33 156 36 73 4 94 1 130 -17 50 -24 74
-59 84 -120 5 -32 3 -45 -7 -52 -8 -5 -82 -9 -165 -9 -250 0 -342 -47 -373
-191 -15 -66 -5 -118 33 -181 25 -42 43 -59 90 -83 55 -28 67 -30 165 -30 120
0 172 17 228 74 l32 31 3 -47 3 -48 83 -3 82 -3 0 295 c0 274 -1 299 -21 351
-11 30 -32 69 -46 86 -71 84 -254 121 -418 84z m308 -514 c-2 -43 -10 -74 -23
-97 -42 -67 -178 -103 -265 -70 -61 24 -85 57 -85 115 0 39 5 52 29 75 36 34
91 44 236 42 l110 -1 -2 -64z"/>
<path d="M7674 6022 c-54 -19 -98 -49 -123 -85 -15 -21 -16 -20 -21 33 l-5 55
-82 3 -83 3 0 -411 0 -410 84 0 85 0 3 258 c3 254 3 258 29 307 37 73 90 106
177 113 40 2 84 0 105 -7 45 -15 93 -68 106 -118 6 -22 11 -147 11 -295 l0
-258 90 0 90 0 0 248 c0 136 -5 276 -11 312 -20 123 -63 191 -154 238 -67 35
-222 42 -301 14z"/>
<path d="M8610 6025 c-72 -20 -154 -70 -196 -120 -139 -161 -133 -431 13 -580
148 -150 436 -166 603 -34 28 22 50 43 50 47 -1 4 -21 29 -45 56 l-45 50 -22
-21 c-71 -65 -204 -90 -310 -59 -79 23 -143 90 -169 178 l-8 28 331 0 331 0
-5 91 c-5 78 -11 100 -42 163 -43 87 -93 136 -183 179 -54 25 -80 30 -157 33
-61 3 -109 -1 -146 -11z m211 -136 c73 -22 149 -112 149 -177 l0 -22 -246 0
-245 0 7 23 c24 78 87 149 155 173 44 16 131 17 180 3z"/>
<path d="M12613 6030 c-88 -18 -153 -59 -195 -120 -17 -25 -17 -24 -17 48 l-1
72 -50 0 -50 0 0 -410 0 -410 49 0 50 0 3 268 c3 253 4 269 25 308 57 107 133
154 248 154 97 0 164 -33 203 -98 l27 -47 3 -292 3 -293 50 0 50 0 -3 313 -3
312 -27 51 c-33 62 -86 109 -148 129 -59 19 -164 26 -217 15z"/>
<path d="M15954 6030 c-97 -19 -160 -60 -209 -133 l-35 -52 0 93 0 92 -45 0
-45 0 0 -410 0 -410 49 0 50 0 3 263 c3 251 4 264 26 305 49 93 157 162 252
162 l40 0 0 50 c0 56 -1 56 -86 40z"/>
<path d="M5630 5620 l0 -410 84 0 c72 0 84 3 87 18 2 9 3 194 1 410 l-3 392
-84 0 -85 0 0 -410z"/>
<path d="M6370 6024 c0 -3 48 -118 106 -257 199 -473 234 -558 234 -575 0 -9
-13 -39 -28 -67 -47 -86 -122 -105 -214 -53 -21 12 -39 20 -41 17 -13 -20 -57
-122 -57 -132 0 -26 91 -60 175 -65 68 -4 89 -1 133 18 57 25 110 77 143 142
12 24 63 147 114 273 95 237 270 657 286 688 9 16 3 17 -76 17 l-86 0 -16 -37
c-9 -21 -67 -164 -129 -318 -99 -245 -114 -277 -122 -255 -22 57 -177 432
-214 518 l-40 92 -84 0 c-46 0 -84 -2 -84 -6z"/>
<path d="M9236 6022 c-3 -5 51 -175 120 -378 69 -203 130 -384 137 -402 10
-32 11 -33 65 -30 l55 3 94 265 c51 146 105 298 119 338 15 40 30 70 34 65 5
-4 33 -82 63 -173 31 -91 81 -241 112 -333 l57 -168 56 3 55 3 18 50 c124 355
259 748 259 756 0 6 -20 9 -47 7 l-47 -3 -115 -347 c-64 -192 -118 -348 -121
-348 -3 0 -58 156 -123 348 l-117 347 -49 3 -48 3 -41 -118 c-119 -347 -206
-583 -213 -576 -4 4 -56 161 -117 348 l-109 340 -46 3 c-25 2 -48 -1 -51 -6z"/>
<path d="M10785 6012 c-108 -37 -160 -108 -159 -213 1 -108 57 -161 214 -204
204 -56 231 -66 263 -95 27 -24 32 -35 32 -74 0 -36 -6 -51 -30 -76 -80 -84
-295 -76 -431 17 l-38 25 -23 -28 c-31 -40 -29 -49 18 -83 74 -54 158 -76 294
-76 104 0 127 3 170 23 128 59 184 185 130 292 -31 61 -101 99 -247 136 -160
39 -195 53 -223 85 -43 52 -28 135 30 173 66 44 228 37 330 -13 32 -16 63 -27
67 -25 15 10 39 65 32 75 -10 17 -102 55 -162 68 -79 17 -208 13 -267 -7z"/>
<path d="M11890 5621 l0 -411 50 0 50 0 -2 408 -3 407 -47 3 -48 3 0 -410z"/>
<path d="M13503 6012 c-138 -49 -230 -167 -255 -327 -49 -318 241 -558 554
-459 53 17 168 97 168 116 0 7 -11 26 -23 42 l-24 29 -54 -40 c-30 -23 -76
-48 -102 -57 -61 -20 -160 -20 -220 0 -91 31 -173 130 -193 234 l-6 30 343 2
344 3 -3 55 c-10 173 -81 294 -211 357 -48 24 -70 28 -161 31 -82 2 -116 -2
-157 -16z m193 -73 c76 -14 134 -48 173 -101 29 -39 61 -121 61 -155 0 -10
-57 -13 -290 -13 -233 0 -290 3 -290 13 0 44 35 123 73 164 56 61 95 80 208
102 3 1 32 -4 65 -10z"/>
<path d="M14821 6010 c-76 -28 -124 -62 -170 -120 -163 -206 -94 -534 137
-647 53 -26 66 -28 177 -28 116 0 123 1 186 32 299 148 301 605 3 748 -52 26
-72 29 -169 32 -91 3 -120 0 -164 -17z m275 -95 c63 -28 114 -78 145 -141 21
-42 24 -63 24 -154 0 -120 -16 -166 -82 -234 -64 -65 -105 -81 -213 -81 -86 0
-100 3 -148 29 -112 63 -174 206 -150 351 21 132 115 234 237 255 63 11 126 2
187 -25z"/>
<path d="M14248 5360 c-27 -16 -42 -76 -28 -111 23 -56 94 -68 129 -23 44 56
11 144 -52 144 -18 0 -40 -5 -49 -10z"/>
</g>
</svg>
